<svg xmlns="http://www.w3.org/2000/svg" xmlns:xlink="http://www.w3.org/1999/xlink" preserveAspectRatio="xMidYMid" width="24.281" height="31.937" viewBox="0 0 24.281 31.937">
  <defs>
    <style>
      .cls-1 {
        fill: #188b5a;
      }

      .cls-2 {
        fill: #fff;
        fill-rule: evenodd;
      }
    </style>
  </defs>
  <g>
    <circle cx="12.141" cy="14.89" r="12.141" class="cls-1"/>
    <path d="M11.227,-0.005 L20.077,-0.005 C20.332,-0.005 20.494,0.270 20.369,0.493 L13.592,11.538 C13.467,11.761 13.628,12.036 13.884,12.036 L19.269,12.036 C19.542,12.036 19.700,12.344 19.541,12.566 L7.602,31.785 C7.386,32.086 6.914,31.866 7.006,31.507 L10.050,18.482 C10.104,18.270 9.944,18.064 9.726,18.064 L5.987,18.064 C5.769,18.064 5.609,17.858 5.663,17.646 L10.903,0.247 C10.940,0.098 11.074,-0.005 11.227,-0.005 Z" class="cls-2"/>
  </g>
</svg>
